# xmcd CD database file
#
# Track frame offsets:
#	187
#	14487
#	31142
#	50087
#	67270
#	83952
#	100230
#	115712
#	130755
#	146777
#
# Disc length: 2185 seconds
#
# Revision: 0
# Processed by: cddbd v1.5.1PL0 Copyright (c) Steve Scherf et al.
# Submitted via: CDex 1.51
#
DISCID=8d08870a
DTITLE=長山洋子 - CD FILE vol.1
DYEAR=1900
DGENRE=JPop
TTITLE0=春は SA・RA SA・RA
TTITLE1=夢の色
TTITLE2=シャボン
TTITLE3=ピアニシモ
TTITLE4=密やかにときめいて…
TTITLE5=ごめん
TTITLE6=瞬間(とき)はファンタジー
TTITLE7=ハーフムーンの気持
TTITLE8=ゴールドウィンド
TTITLE9=ぽろぽろと
EXTD=
EXTT0=
EXTT1=
EXTT2=
EXTT3=
EXTT4=
EXTT5=
EXTT6=
EXTT7=
EXTT8=
EXTT9=
PLAYORDER=
